<svg xmlns="http://www.w3.org/2000/svg" version="1.1" xmlns:xlink="http://www.w3.org/1999/xlink" xmlns:svgjs="http://svgjs.com/svgjs" height="109.16998291015625" width="345.4074737548828"><defs id="SvgjsDefs1042"></defs><g id="SvgjsG1043" rel="mainfill" name="main_text" xmlns:name="main_text" transform="translate(-7.639999866485603,-166.6699981689453)" fill="#89725B"><path d="M81.98 194.68C81.98 179.91 70.78 168.71 46.85 168.71L11.20 168.71C9.17 168.71 7.64 170.24 7.64 172.28L7.64 236.44C7.64 238.47 9.17 240 11.20 240L26.48 240C28.52 240 30.04 238.47 30.04 236.44L30.04 220.65L46.85 220.65C70.78 220.65 81.98 209.45 81.98 194.68ZM30.04 204.36L30.04 185.01L46.85 185.01C54.48 185.01 58.56 189.08 58.56 194.68C58.56 200.28 54.48 204.36 46.85 204.36ZM152.25 208.43C152.25 208.43 166.00 205.37 166.00 192.13C166.00 179.40 155.31 168.71 132.90 168.71L95.73 168.71C93.69 168.71 92.17 170.24 92.17 172.28L92.17 236.44C92.17 238.47 93.69 240 95.73 240L111.01 240C113.04 240 114.57 238.47 114.57 236.44L114.57 215.56L127.81 215.56C133.41 215.56 135.35 217.59 136.98 220.65L145.63 236.44C146.75 238.47 148.18 240 152.25 240L168.04 240C170.58 240 171.40 237.96 170.58 236.44L161.93 220.65C156.84 211.48 152.25 209.45 152.25 209.45ZM114.57 199.26L114.57 185.01L132.90 185.01C139.52 185.01 142.58 188.06 142.58 192.13C142.58 196.21 139.52 199.26 132.90 199.26ZM218.75 166.67C191.77 166.67 177.00 181.44 177.00 204.36C177.00 227.27 191.77 242.04 218.75 242.04C243.20 242.04 256.44 228.80 256.44 216.58C256.44 214.03 254.91 212.50 252.36 212.50L239.63 212.50C236.58 212.50 234.95 214.03 233.52 216.58C230.98 221.16 226.90 225.23 218.75 225.23C207.55 225.23 200.42 218.10 200.42 204.36C200.42 190.61 207.55 183.48 218.75 183.48C226.39 183.48 229.96 187.04 232.50 191.12C234.03 193.66 235.56 195.19 238.61 195.19L251.34 195.19C253.89 195.19 255.42 193.66 255.42 191.12C255.42 179.40 242.69 166.67 218.75 166.67Z" fill="#89725B" style="fill: rgb(137, 114, 91);"></path></g><g id="SvgjsG1044" rel="mainfill" name="slogan_text" xmlns:name="slogan_text" transform="translate(13.75499749183654,-136.23001098632812)" fill="#89725B"><path d="M1.68 223.01L1.68 240L4.82 240L4.82 233.53L5.52 233.53C9.59 233.53 11.95 231.58 11.95 228.22C11.95 224.01 9.13 223.01 4.84 223.01ZM4.72 225.45L5.35 225.45C7.35 225.45 8.79 226.15 8.79 228.20C8.79 230.48 7.20 231.12 5.28 231.12L4.72 231.12ZM14.26 227.49L14.26 240L17.28 240L17.28 227.49ZM14.17 222.62L14.17 225.47L17.38 225.47L17.38 222.62ZM20.44 221.60L20.44 240L23.49 240L23.49 221.60ZM27.28 230.39C28.28 229.73 29.55 229.39 30.67 229.39C32.40 229.39 33.25 230.34 33.25 232.14L33.25 232.24C32.74 232.19 32.10 232.16 31.69 232.16C28.09 232.16 25.99 233.62 25.99 236.35C25.99 238.66 27.41 240.22 29.84 240.22C31.62 240.22 32.81 239.42 33.47 238.05L33.51 238.05C33.49 238.39 33.49 238.76 33.49 239.03C33.49 239.39 33.51 239.81 33.54 240L36.09 240C36.02 239.05 35.97 237.59 35.97 236.13C35.97 235.40 36.02 233.50 36.02 232.28C36.02 229.19 34.76 227.17 31.15 227.17C29.84 227.17 28.31 227.44 27.16 228.00ZM33.27 234.06C33.27 235.03 33.17 235.84 32.93 236.45C32.57 237.42 31.69 238.15 30.57 238.15C29.43 238.15 28.74 237.35 28.74 236.28C28.74 234.77 29.96 234.01 32.27 234.01C32.71 234.01 33.05 234.04 33.27 234.06ZM41.72 229.63C41.72 229.00 41.67 228.03 41.62 227.49L38.75 227.49C38.85 228.80 38.87 230.05 38.87 231.26L38.87 240L41.89 240L41.89 233.79C41.89 231.43 42.64 229.56 44.13 229.56C45.56 229.56 45.78 231.09 45.78 233.31L45.78 240L48.80 240L48.80 232.31C48.80 229.02 47.75 227.17 45.12 227.17C43.57 227.17 42.40 228.10 41.77 229.63ZM51.84 227.49L51.84 240L54.86 240L54.86 227.49ZM51.74 222.62L51.74 225.47L54.96 225.47L54.96 222.62ZM59.83 227.49L56.61 227.49L60.48 240.49C59.97 242.43 59.46 242.90 58.44 242.90C58.12 242.90 57.81 242.87 57.42 242.77L57.22 245.18C57.71 245.33 58.32 245.40 58.85 245.40C61.29 245.40 62.62 244.28 63.72 240.66L67.71 227.49L64.60 227.49C62.67 235.35 62.36 236.69 62.21 237.57L62.16 237.57C62.02 236.69 61.77 235.40 59.83 227.49ZM70.10 230.39C71.09 229.73 72.36 229.39 73.48 229.39C75.21 229.39 76.06 230.34 76.06 232.14L76.06 232.24C75.55 232.19 74.92 232.16 74.50 232.16C70.90 232.16 68.81 233.62 68.81 236.35C68.81 238.66 70.22 240.22 72.65 240.22C74.43 240.22 75.62 239.42 76.28 238.05L76.33 238.05C76.30 238.39 76.30 238.76 76.30 239.03C76.30 239.39 76.33 239.81 76.35 240L78.91 240C78.83 239.05 78.79 237.59 78.79 236.13C78.79 235.40 78.83 233.50 78.83 232.28C78.83 229.19 77.57 227.17 73.97 227.17C72.65 227.17 71.12 227.44 69.97 228.00ZM76.08 234.06C76.08 235.03 75.99 235.84 75.74 236.45C75.38 237.42 74.50 238.15 73.38 238.15C72.24 238.15 71.56 237.35 71.56 236.28C71.56 234.77 72.77 234.01 75.09 234.01C75.52 234.01 75.86 234.04 76.08 234.06ZM87.11 223.01L87.11 240L90.22 240L90.22 232.75L90.83 232.75C92.32 232.75 92.90 233.19 93.46 234.94L95.09 240L98.43 240L96.41 234.13C95.85 232.48 95.24 231.77 94.17 231.55L94.17 231.53C96.19 231.09 97.53 229.68 97.53 227.49C97.53 223.74 94.53 223.01 90.78 223.01ZM90.18 225.40L90.81 225.40C93.10 225.40 94.39 226.03 94.39 227.88C94.39 229.58 93.27 230.48 90.98 230.48L90.18 230.48ZM105.39 227.17C101.91 227.17 99.86 229.83 99.86 233.74C99.86 237.64 101.88 240.32 105.34 240.32C108.82 240.32 110.82 237.66 110.82 233.74C110.82 229.85 108.84 227.17 105.39 227.17ZM105.34 229.49C106.90 229.49 107.68 231.19 107.68 233.77C107.68 236.35 106.92 237.96 105.39 237.96C103.78 237.96 103.03 236.30 103.03 233.77C103.03 231.16 103.83 229.49 105.34 229.49ZM113.96 230.39C114.95 229.73 116.22 229.39 117.34 229.39C119.07 229.39 119.92 230.34 119.92 232.14L119.92 232.24C119.41 232.19 118.77 232.16 118.36 232.16C114.76 232.16 112.67 233.62 112.67 236.35C112.67 238.66 114.08 240.22 116.51 240.22C118.29 240.22 119.48 239.42 120.14 238.05L120.19 238.05C120.16 238.39 120.16 238.76 120.16 239.03C120.16 239.39 120.19 239.81 120.21 240L122.77 240C122.69 239.05 122.64 237.59 122.64 236.13C122.64 235.40 122.69 233.50 122.69 232.28C122.69 229.19 121.43 227.17 117.82 227.17C116.51 227.17 114.98 227.44 113.83 228.00ZM119.94 234.06C119.94 235.03 119.85 235.84 119.60 236.45C119.24 237.42 118.36 238.15 117.24 238.15C116.10 238.15 115.42 237.35 115.42 236.28C115.42 234.77 116.63 234.01 118.94 234.01C119.38 234.01 119.72 234.04 119.94 234.06ZM132.62 229.24C132.01 227.95 130.97 227.17 129.39 227.17C126.61 227.17 124.91 230.12 124.91 233.82C124.91 237.64 126.71 240.32 129.53 240.32C131.09 240.32 132.16 239.44 132.77 238.00L132.82 238.00C132.82 238.71 132.87 239.46 132.92 240L135.74 240C135.64 238.95 135.62 237.61 135.62 236.30L135.62 221.60L132.60 221.60L132.60 226.81C132.60 227.61 132.62 228.83 132.67 229.24ZM130.34 237.98C128.83 237.98 128.05 236.20 128.05 233.72C128.05 231.36 128.87 229.46 130.34 229.46C131.89 229.46 132.77 231.31 132.77 233.67C132.77 236.06 131.87 237.98 130.34 237.98ZM154.14 223.08C153.31 222.87 152.51 222.79 151.58 222.79C146.54 222.79 143.43 226.42 143.43 231.41C143.43 236.71 146.50 240.22 151.58 240.22C152.58 240.22 153.34 240.12 154.24 239.90L154.07 237.15C153.26 237.47 152.56 237.57 151.75 237.57C148.69 237.57 146.76 235.08 146.76 231.43C146.76 228.15 148.42 225.35 151.75 225.35C152.48 225.35 153.26 225.47 153.97 225.76ZM157.30 230.39C158.30 229.73 159.57 229.39 160.69 229.39C162.41 229.39 163.27 230.34 163.27 232.14L163.27 232.24C162.75 232.19 162.12 232.16 161.71 232.16C158.11 232.16 156.01 233.62 156.01 236.35C156.01 238.66 157.42 240.22 159.86 240.22C161.64 240.22 162.83 239.42 163.48 238.05L163.53 238.05C163.51 238.39 163.51 238.76 163.51 239.03C163.51 239.39 163.53 239.81 163.56 240L166.11 240C166.04 239.05 165.99 237.59 165.99 236.13C165.99 235.40 166.04 233.50 166.04 232.28C166.04 229.19 164.77 227.17 161.17 227.17C159.86 227.17 158.33 227.44 157.18 228.00ZM163.29 234.06C163.29 235.03 163.19 235.84 162.95 236.45C162.58 237.42 161.71 238.15 160.59 238.15C159.44 238.15 158.76 237.35 158.76 236.28C158.76 234.77 159.98 234.01 162.29 234.01C162.73 234.01 163.07 234.04 163.29 234.06ZM171.74 229.85C171.74 229.17 171.66 227.98 171.61 227.49L168.77 227.49C168.86 228.56 168.89 229.87 168.89 231.09L168.89 240L171.91 240L171.91 234.50C171.91 231.43 172.73 229.95 174.71 229.95C174.97 229.95 175.19 229.95 175.46 230.02L175.46 227.25C175.24 227.17 175.02 227.17 174.85 227.17C173.44 227.17 172.30 228.24 171.78 229.85ZM180.01 229.85C180.01 229.17 179.94 227.98 179.89 227.49L177.04 227.49C177.14 228.56 177.16 229.87 177.16 231.09L177.16 240L180.18 240L180.18 234.50C180.18 231.43 181.01 229.95 182.98 229.95C183.25 229.95 183.47 229.95 183.73 230.02L183.73 227.25C183.52 227.17 183.30 227.17 183.13 227.17C181.71 227.17 180.57 228.24 180.06 229.85ZM185.56 227.49L185.56 240L188.58 240L188.58 227.49ZM185.46 222.62L185.46 225.47L188.68 225.47L188.68 222.62ZM201.43 234.62C201.45 234.35 201.48 233.79 201.48 233.48C201.48 229.39 199.85 227.17 196.51 227.17C193.20 227.17 191.06 229.70 191.06 233.65C191.06 237.76 193.25 240.32 197.36 240.32C198.58 240.32 199.68 240.10 200.60 239.76L200.50 237.35C199.53 237.76 198.70 237.96 197.61 237.96C195.32 237.96 194.10 236.50 194.03 234.62ZM194.03 232.58C194.15 230.53 195.17 229.22 196.51 229.22C197.95 229.22 198.68 230.48 198.68 232.58ZM206.74 229.85C206.74 229.17 206.66 227.98 206.61 227.49L203.77 227.49C203.86 228.56 203.89 229.87 203.89 231.09L203.89 240L206.91 240L206.91 234.50C206.91 231.43 207.73 229.95 209.70 229.95C209.97 229.95 210.19 229.95 210.46 230.02L210.46 227.25C210.24 227.17 210.02 227.17 209.85 227.17C208.44 227.17 207.30 228.24 206.78 229.85ZM211.63 239.73C212.72 240.15 213.92 240.32 215.08 240.32C217.76 240.32 219.61 238.90 219.61 236.28C219.61 234.40 218.64 233.43 216.62 232.55C215.06 231.90 214.52 231.53 214.52 230.70C214.52 229.78 215.28 229.36 216.23 229.36C217.13 229.36 218.10 229.58 218.95 229.95L219.15 227.66C218.37 227.37 217.30 227.17 216.13 227.17C213.60 227.17 211.65 228.44 211.65 230.95C211.65 232.63 212.43 233.57 214.50 234.52C216.28 235.33 216.76 235.72 216.76 236.57C216.76 237.49 216.03 237.98 214.89 237.98C213.84 237.98 212.75 237.69 211.82 237.18Z" fill="#89725B" style="fill: rgb(137, 114, 91);"></path></g><g id="SvgjsG1045" rel="mainfill" name="symbol" xmlns:name="symbol_mainfill" transform="translate(260.4037384033203,10.38499145507813) scale(1.7)" fill="#89725B"><g fill="#89725B"><g fill="#89725B"><g fill="#89725B"><path d="M50.0021973,31.4978027h-18v-19.5c0-1.378418,1.121582-2.5,2.5-2.5h9.0668945l6.4331055,10.7558594V31.4978027z      M34.0021973,29.4978027h14v-8.6914063l-5.5668945-9.3085938h-7.9331055c-0.2758789,0-0.5,0.2241211-0.5,0.5V29.4978027z" fill="#89725B" style="fill: rgb(137, 114, 91);"></path></g></g><g fill="#89725B"><g fill="#89725B"><path d="M44.4680176,22.4978027H37.302002c-0.7167969,0-1.2998047-0.5830078-1.2998047-1.2998047v-6.4003906     c0-0.7167969,0.5830078-1.2998047,1.2998047-1.2998047h3.2631836c0.4492188,0,0.8745117,0.2382813,1.109375,0.6220703     l3.9033203,6.4013672c0.2441406,0.3994141,0.253418,0.902832,0.0239258,1.3125     C45.3718262,22.2434082,44.9377441,22.4978027,44.4680176,22.4978027z M43.869873,21.5617676     c0,0,0.0004883,0.0009766,0.0009766,0.0014648L43.869873,21.5617676z M38.0021973,20.4978027h5.21875l-3.0488281-5h-2.1699219     V20.4978027z" fill="#89725B" style="fill: rgb(137, 114, 91);"></path></g></g><g fill="#89725B"><g fill="#89725B"><path d="M47.4978027,39.5021973h-4.5v-1c0-1.1030273-0.8969727-2-2-2s-2,0.8969727-2,2h-2c0-1.1030273-0.8969727-2-2-2     s-2,0.8969727-2,2v1h-14v-1c0-1.1030273-0.8969727-2-2-2s-2,0.8969727-2,2h-2c0-1.1030273-0.8969727-2-2-2s-2,0.8969727-2,2v1h-5     c-1.1030273,0-2-0.8969727-2-2v-6c0-1.1030273,0.8969727-2,2-2h46v7.5     C49.9978027,38.3806152,48.8762207,39.5021973,47.4978027,39.5021973z M44.8713379,37.5021973h2.6264648     c0.2758789,0,0.5-0.2241211,0.5-0.5v-5.5h-44v6h3.1264648c0.4453125-1.7231445,2.0131836-3,3.8735352-3     c1.1933594,0,2.2666016,0.5253906,3,1.3569336c0.7333984-0.831543,1.8066406-1.3569336,3-1.3569336     c1.8603516,0,3.4282227,1.2768555,3.8735352,3h10.2529297c0.4453125-1.7231445,2.0131836-3,3.8735352-3     c1.1933594,0,2.2666016,0.5253906,3,1.3569336c0.7333984-0.831543,1.8066406-1.3569336,3-1.3569336     C42.8581543,34.5021973,44.4260254,35.7790527,44.8713379,37.5021973z" fill="#89725B" style="fill: rgb(137, 114, 91);"></path></g></g><g fill="#89725B"><g fill="#89725B"><path d="M10.9978027,42.5021973c-2.2055664,0-4-1.7944336-4-4s1.7944336-4,4-4s4,1.7944336,4,4     S13.2033691,42.5021973,10.9978027,42.5021973z M10.9978027,36.5021973c-1.1030273,0-2,0.8969727-2,2s0.8969727,2,2,2     s2-0.8969727,2-2S12.1008301,36.5021973,10.9978027,36.5021973z" fill="#89725B" style="fill: rgb(137, 114, 91);"></path></g></g><g fill="#89725B"><g fill="#89725B"><path d="M16.9978027,42.5021973c-2.2055664,0-4-1.7944336-4-4s1.7944336-4,4-4s4,1.7944336,4,4     S19.2033691,42.5021973,16.9978027,42.5021973z M16.9978027,36.5021973c-1.1030273,0-2,0.8969727-2,2s0.8969727,2,2,2     s2-0.8969727,2-2S18.1008301,36.5021973,16.9978027,36.5021973z" fill="#89725B" style="fill: rgb(137, 114, 91);"></path></g></g><g fill="#89725B"><g fill="#89725B"><path d="M34.9978027,42.5021973c-2.2055664,0-4-1.7944336-4-4s1.7944336-4,4-4s4,1.7944336,4,4     S37.2033691,42.5021973,34.9978027,42.5021973z M34.9978027,36.5021973c-1.1030273,0-2,0.8969727-2,2s0.8969727,2,2,2     s2-0.8969727,2-2S36.1008301,36.5021973,34.9978027,36.5021973z" fill="#89725B" style="fill: rgb(137, 114, 91);"></path></g></g><g fill="#89725B"><g fill="#89725B"><path d="M40.9978027,42.5021973c-2.2055664,0-4-1.7944336-4-4s1.7944336-4,4-4s4,1.7944336,4,4     S43.2033691,42.5021973,40.9978027,42.5021973z M40.9978027,36.5021973c-1.1030273,0-2,0.8969727-2,2s0.8969727,2,2,2     s2-0.8969727,2-2S42.1008301,36.5021973,40.9978027,36.5021973z" fill="#89725B" style="fill: rgb(137, 114, 91);"></path></g></g><g fill="#89725B"><g fill="#89725B"><rect x="46.0021973" y="25.4978027" width="2.9956055" height="2"></rect></g></g><g fill="#89725B"><g fill="#89725B"><path d="M19.0041504,31.4958496h-4.0039063c-0.2651367,0-0.5195313-0.1054688-0.7070313-0.2929688L4.295166,21.204834     c-0.390625-0.390625-0.390625-1.0234375,0-1.4140625l10-10c0.1875-0.1875,0.4418945-0.2929688,0.7070313-0.2929688h4     c0.2651367,0,0.5195313,0.1054688,0.7070313,0.2929688l10,10c0.390625,0.390625,0.390625,1.0234375,0,1.4140625     l-9.9980469,9.9980469C19.5236816,31.3903809,19.2692871,31.4958496,19.0041504,31.4958496z M15.4143066,29.4958496h3.1757813     l8.9980469-8.9980469l-9-9h-3.171875l-9,9L15.4143066,29.4958496z" fill="#89725B" style="fill: rgb(137, 114, 91);"></path></g></g></g></g></svg>